<svg xmlns="http://www.w3.org/2000/svg" xmlns:xlink="http://www.w3.org/1999/xlink" fill="none" version="1.1" width="16" height="32" viewBox="0 0 16 32"><g><g><path d="M0,2L0,6Q0,6.09825,0.00963055,6.19603Q0.0192611,6.29381,0.0384294,6.39018Q0.0575978,6.48655,0.0861193,6.58057Q0.114641,6.67459,0.152241,6.76537Q0.189841,6.85614,0.236157,6.94279Q0.282474,7.02945,0.337061,7.11114Q0.391648,7.19284,0.453979,7.26879Q0.516311,7.34474,0.585786,7.41421Q0.655262,7.48369,0.731213,7.54602Q0.807164,7.60835,0.888859,7.66294Q0.970554,7.71753,1.05721,7.76384Q1.14386,7.81016,1.23463,7.84776Q1.32541,7.88536,1.41943,7.91388Q1.51345,7.9424,1.60982,7.96157Q1.70619,7.98074,1.80397,7.99037Q1.90175,8,2,8L13,8Q13.0983,8,13.196,7.99037Q13.2938,7.98074,13.3902,7.96157Q13.4865,7.9424,13.5806,7.91388Q13.6746,7.88536,13.7654,7.84776Q13.8561,7.81016,13.9428,7.76384Q14.0294,7.71753,14.1111,7.66294Q14.1928,7.60835,14.2688,7.54602Q14.3447,7.48369,14.4142,7.41421Q14.4837,7.34474,14.546,7.26879Q14.6084,7.19284,14.6629,7.11114Q14.7175,7.02944,14.7638,6.94279Q14.8102,6.85614,14.8478,6.76537Q14.8854,6.67459,14.9139,6.58057Q14.9424,6.48655,14.9616,6.39018Q14.9807,6.29381,14.9904,6.19603Q15,6.09825,15,6L15,2Q15,1.90175,14.9904,1.80397Q14.9807,1.70619,14.9616,1.60982Q14.9424,1.51345,14.9139,1.41943Q14.8854,1.32541,14.8478,1.23463Q14.8102,1.14386,14.7638,1.05721Q14.7175,0.970554,14.6629,0.888859Q14.6084,0.807164,14.546,0.731213Q14.4837,0.655262,14.4142,0.585786Q14.3447,0.516311,14.2688,0.453979Q14.1928,0.391648,14.1111,0.337061Q14.0294,0.282474,13.9428,0.236157Q13.8561,0.189841,13.7654,0.152241Q13.6746,0.114641,13.5806,0.0861193Q13.4865,0.0575978,13.3902,0.0384294Q13.2938,0.0192611,13.196,0.00963055Q13.0983,0,13,0L2,0Q1.90175,0,1.80397,0.00963055Q1.70619,0.0192611,1.60982,0.0384294Q1.51345,0.0575978,1.41943,0.0861193Q1.32541,0.114641,1.23463,0.152241Q1.14386,0.189841,1.05721,0.236157Q0.970554,0.282474,0.888859,0.337061Q0.807164,0.391648,0.731213,0.453979Q0.655262,0.516311,0.585786,0.585786Q0.516311,0.655262,0.453979,0.731213Q0.391648,0.807164,0.337061,0.888859Q0.282474,0.970554,0.236157,1.05721Q0.189841,1.14386,0.152241,1.23463Q0.114641,1.32541,0.0861193,1.41943Q0.0575978,1.51345,0.0384294,1.60982Q0.0192611,1.70619,0.00963055,1.80397Q0,1.90175,0,2ZM1,2L1,6Q1,6.09849,1.01921,6.19509Q1.03843,6.29169,1.07612,6.38268Q1.11381,6.47368,1.16853,6.55557Q1.22325,6.63746,1.29289,6.70711Q1.36254,6.77675,1.44443,6.83147Q1.52632,6.88619,1.61732,6.92388Q1.70831,6.96157,1.80491,6.98078Q1.90151,7,2,7L13,7Q13.0985,7,13.1951,6.98078Q13.2917,6.96157,13.3827,6.92388Q13.4737,6.88619,13.5556,6.83147Q13.6375,6.77675,13.7071,6.70711Q13.7767,6.63746,13.8315,6.55557Q13.8862,6.47368,13.9239,6.38268Q13.9616,6.29169,13.9808,6.19509Q14,6.09849,14,6L14,2Q14,1.90151,13.9808,1.80491Q13.9616,1.70831,13.9239,1.61732Q13.8862,1.52632,13.8315,1.44443Q13.7767,1.36254,13.7071,1.29289Q13.6375,1.22325,13.5556,1.16853Q13.4737,1.11381,13.3827,1.07612Q13.2917,1.03843,13.1951,1.01921Q13.0985,1,13,1L2,1Q1.90151,1,1.80491,1.01921Q1.70831,1.03843,1.61732,1.07612Q1.52632,1.11381,1.44443,1.16853Q1.36254,1.22325,1.29289,1.29289Q1.22325,1.36254,1.16853,1.44443Q1.11381,1.52632,1.07612,1.61732Q1.03843,1.70831,1.01921,1.80491Q1,1.90151,1,2Z" fill-rule="evenodd" fill="#4FF5C0" fill-opacity="1"/></g><g><rect x="15" y="2" width="1" height="4" rx="0" fill="#4FF5C0" fill-opacity="1"/></g><g><rect x="2" y="2" width="2" height="4" rx="0" fill="#4FF5C0" fill-opacity="1"/></g><g><rect x="5" y="2" width="2" height="4" rx="0" fill="#4FF5C0" fill-opacity="1"/></g><g><rect x="8" y="2" width="2" height="4" rx="0" fill="#4FF5C0" fill-opacity="1"/></g><g><rect x="11" y="2" width="2" height="4" rx="0" fill="#4FF5C0" fill-opacity="1"/></g><g><path d="M0,10L0,14Q0,14.09825,0.00963055,14.19603Q0.0192611,14.29381,0.0384294,14.39018Q0.0575978,14.486550000000001,0.0861193,14.58057Q0.114641,14.67459,0.152241,14.76537Q0.189841,14.85614,0.236157,14.942789999999999Q0.282474,15.02945,0.337061,15.111139999999999Q0.391648,15.19284,0.453979,15.26879Q0.516311,15.34474,0.585786,15.41421Q0.655262,15.48369,0.731213,15.54602Q0.807164,15.60835,0.888859,15.662939999999999Q0.970554,15.71753,1.05721,15.76384Q1.14386,15.81016,1.23463,15.847760000000001Q1.32541,15.88536,1.41943,15.913879999999999Q1.51345,15.9424,1.60982,15.96157Q1.70619,15.98074,1.80397,15.99037Q1.90175,16,2,16L13,16Q13.0983,16,13.196,15.99037Q13.2938,15.98074,13.3902,15.96157Q13.4865,15.9424,13.5806,15.913879999999999Q13.6746,15.88536,13.7654,15.847760000000001Q13.8561,15.81016,13.9428,15.76384Q14.0294,15.71753,14.1111,15.662939999999999Q14.1928,15.60835,14.2688,15.54602Q14.3447,15.48369,14.4142,15.41421Q14.4837,15.34474,14.546,15.26879Q14.6084,15.19284,14.6629,15.111139999999999Q14.7175,15.029440000000001,14.7638,14.942789999999999Q14.8102,14.85614,14.8478,14.76537Q14.8854,14.67459,14.9139,14.58057Q14.9424,14.486550000000001,14.9616,14.39018Q14.9807,14.29381,14.9904,14.19603Q15,14.09825,15,14L15,10Q15,9.90175,14.9904,9.80397Q14.9807,9.70619,14.9616,9.60982Q14.9424,9.51345,14.9139,9.41943Q14.8854,9.32541,14.8478,9.23463Q14.8102,9.14386,14.7638,9.05721Q14.7175,8.970554,14.6629,8.888859Q14.6084,8.807164,14.546,8.731213Q14.4837,8.655262,14.4142,8.585786Q14.3447,8.516311,14.2688,8.453979Q14.1928,8.391648,14.1111,8.337061Q14.0294,8.282474,13.9428,8.236157Q13.8561,8.189841,13.7654,8.152241Q13.6746,8.114641,13.5806,8.0861193Q13.4865,8.0575978,13.3902,8.0384294Q13.2938,8.0192611,13.196,8.00963055Q13.0983,8,13,8L2,8Q1.90175,8,1.80397,8.00963055Q1.70619,8.0192611,1.60982,8.0384294Q1.51345,8.0575978,1.41943,8.0861193Q1.32541,8.114641,1.23463,8.152241Q1.14386,8.189841,1.05721,8.236157Q0.970554,8.282474,0.888859,8.337061Q0.807164,8.391648,0.731213,8.453979Q0.655262,8.516311,0.585786,8.585786Q0.516311,8.655262,0.453979,8.731213Q0.391648,8.807164,0.337061,8.888859Q0.282474,8.970554,0.236157,9.05721Q0.189841,9.14386,0.152241,9.23463Q0.114641,9.32541,0.0861193,9.41943Q0.0575978,9.51345,0.0384294,9.60982Q0.0192611,9.70619,0.00963055,9.80397Q0,9.90175,0,10ZM1,10L1,14Q1,14.09849,1.01921,14.19509Q1.03843,14.29169,1.07612,14.38268Q1.11381,14.47368,1.16853,14.55557Q1.22325,14.63746,1.29289,14.70711Q1.36254,14.77675,1.44443,14.83147Q1.52632,14.88619,1.61732,14.92388Q1.70831,14.96157,1.80491,14.98078Q1.90151,15,2,15L13,15Q13.0985,15,13.1951,14.98078Q13.2917,14.96157,13.3827,14.92388Q13.4737,14.88619,13.5556,14.83147Q13.6375,14.77675,13.7071,14.70711Q13.7767,14.63746,13.8315,14.55557Q13.8862,14.47368,13.9239,14.38268Q13.9616,14.29169,13.9808,14.19509Q14,14.09849,14,14L14,10Q14,9.90151,13.9808,9.80491Q13.9616,9.70831,13.9239,9.61732Q13.8862,9.52632,13.8315,9.44443Q13.7767,9.36254,13.7071,9.29289Q13.6375,9.22325,13.5556,9.16853Q13.4737,9.11381,13.3827,9.07612Q13.2917,9.03843,13.1951,9.01921Q13.0985,9,13,9L2,9Q1.90151,9,1.80491,9.01921Q1.70831,9.03843,1.61732,9.07612Q1.52632,9.11381,1.44443,9.16853Q1.36254,9.22325,1.29289,9.29289Q1.22325,9.36254,1.16853,9.44443Q1.11381,9.52632,1.07612,9.61732Q1.03843,9.70831,1.01921,9.80491Q1,9.90151,1,10Z" fill-rule="evenodd" fill="#4FF5C0" fill-opacity="1"/></g><g><rect x="15" y="10" width="1" height="4" rx="0" fill="#4FF5C0" fill-opacity="1"/></g><g><rect x="2" y="10" width="2" height="4" rx="0" fill="#4FF5C0" fill-opacity="1"/></g><g><rect x="5" y="10" width="2" height="4" rx="0" fill="#4FF5C0" fill-opacity="1"/></g><g><rect x="8" y="10" width="2" height="4" rx="0" fill="#4FF5C0" fill-opacity="1"/></g><g><path d="M0,18L0,22Q0,22.09825,0.00963055,22.19603Q0.0192611,22.29381,0.0384294,22.39018Q0.0575978,22.48655,0.0861193,22.58057Q0.114641,22.674590000000002,0.152241,22.76537Q0.189841,22.85614,0.236157,22.94279Q0.282474,23.02945,0.337061,23.11114Q0.391648,23.19284,0.453979,23.26879Q0.516311,23.34474,0.585786,23.41421Q0.655262,23.48369,0.731213,23.54602Q0.807164,23.60835,0.888859,23.66294Q0.970554,23.71753,1.05721,23.763840000000002Q1.14386,23.81016,1.23463,23.84776Q1.32541,23.88536,1.41943,23.91388Q1.51345,23.9424,1.60982,23.961570000000002Q1.70619,23.98074,1.80397,23.99037Q1.90175,24,2,24L13,24Q13.0983,24,13.196,23.99037Q13.2938,23.98074,13.3902,23.961570000000002Q13.4865,23.9424,13.5806,23.91388Q13.6746,23.88536,13.7654,23.84776Q13.8561,23.81016,13.9428,23.763840000000002Q14.0294,23.71753,14.1111,23.66294Q14.1928,23.60835,14.2688,23.54602Q14.3447,23.48369,14.4142,23.41421Q14.4837,23.34474,14.546,23.26879Q14.6084,23.19284,14.6629,23.11114Q14.7175,23.02944,14.7638,22.94279Q14.8102,22.85614,14.8478,22.76537Q14.8854,22.674590000000002,14.9139,22.58057Q14.9424,22.48655,14.9616,22.39018Q14.9807,22.29381,14.9904,22.19603Q15,22.09825,15,22L15,18Q15,17.90175,14.9904,17.80397Q14.9807,17.70619,14.9616,17.60982Q14.9424,17.51345,14.9139,17.41943Q14.8854,17.32541,14.8478,17.23463Q14.8102,17.14386,14.7638,17.05721Q14.7175,16.970554,14.6629,16.888859Q14.6084,16.807164,14.546,16.731213Q14.4837,16.655262,14.4142,16.585786Q14.3447,16.516311,14.2688,16.453979Q14.1928,16.391648,14.1111,16.337061Q14.0294,16.282474,13.9428,16.236157Q13.8561,16.189841,13.7654,16.152241Q13.6746,16.114641,13.5806,16.0861193Q13.4865,16.0575978,13.3902,16.0384294Q13.2938,16.0192611,13.196,16.00963055Q13.0983,16,13,16L2,16Q1.90175,16,1.80397,16.00963055Q1.70619,16.0192611,1.60982,16.0384294Q1.51345,16.0575978,1.41943,16.0861193Q1.32541,16.114641,1.23463,16.152241Q1.14386,16.189841,1.05721,16.236157Q0.970554,16.282474,0.888859,16.337061Q0.807164,16.391648,0.731213,16.453979Q0.655262,16.516311,0.585786,16.585786Q0.516311,16.655262,0.453979,16.731213Q0.391648,16.807164,0.337061,16.888859Q0.282474,16.970554,0.236157,17.05721Q0.189841,17.14386,0.152241,17.23463Q0.114641,17.32541,0.0861193,17.41943Q0.0575978,17.51345,0.0384294,17.60982Q0.0192611,17.70619,0.00963055,17.80397Q0,17.90175,0,18ZM1,18L1,22Q1,22.098489999999998,1.01921,22.19509Q1.03843,22.29169,1.07612,22.38268Q1.11381,22.47368,1.16853,22.55557Q1.22325,22.63746,1.29289,22.70711Q1.36254,22.77675,1.44443,22.83147Q1.52632,22.88619,1.61732,22.92388Q1.70831,22.961570000000002,1.80491,22.98078Q1.90151,23,2,23L13,23Q13.0985,23,13.1951,22.98078Q13.2917,22.961570000000002,13.3827,22.92388Q13.4737,22.88619,13.5556,22.83147Q13.6375,22.77675,13.7071,22.70711Q13.7767,22.63746,13.8315,22.55557Q13.8862,22.47368,13.9239,22.38268Q13.9616,22.29169,13.9808,22.19509Q14,22.098489999999998,14,22L14,18Q14,17.901510000000002,13.9808,17.80491Q13.9616,17.70831,13.9239,17.61732Q13.8862,17.52632,13.8315,17.44443Q13.7767,17.36254,13.7071,17.29289Q13.6375,17.22325,13.5556,17.16853Q13.4737,17.11381,13.3827,17.07612Q13.2917,17.038429999999998,13.1951,17.01921Q13.0985,17,13,17L2,17Q1.90151,17,1.80491,17.01921Q1.70831,17.038429999999998,1.61732,17.07612Q1.52632,17.11381,1.44443,17.16853Q1.36254,17.22325,1.29289,17.29289Q1.22325,17.36254,1.16853,17.44443Q1.11381,17.52632,1.07612,17.61732Q1.03843,17.70831,1.01921,17.80491Q1,17.901510000000002,1,18Z" fill-rule="evenodd" fill="#4FF5C0" fill-opacity="1"/></g><g><rect x="15" y="18" width="1" height="4" rx="0" fill="#4FF5C0" fill-opacity="1"/></g><g><rect x="2" y="18" width="2" height="4" rx="0" fill="#4FF5C0" fill-opacity="1"/></g><g><rect x="5" y="18" width="2" height="4" rx="0" fill="#4FF5C0" fill-opacity="1"/></g><g><path d="M0,26L0,30Q0,30.09825,0.00963055,30.19603Q0.0192611,30.29381,0.0384294,30.39018Q0.0575978,30.48655,0.0861193,30.58057Q0.114641,30.674590000000002,0.152241,30.76537Q0.189841,30.85614,0.236157,30.94279Q0.282474,31.02945,0.337061,31.11114Q0.391648,31.19284,0.453979,31.26879Q0.516311,31.34474,0.585786,31.41421Q0.655262,31.48369,0.731213,31.54602Q0.807164,31.60835,0.888859,31.66294Q0.970554,31.71753,1.05721,31.763840000000002Q1.14386,31.81016,1.23463,31.84776Q1.32541,31.88536,1.41943,31.91388Q1.51345,31.9424,1.60982,31.961570000000002Q1.70619,31.98074,1.80397,31.99037Q1.90175,32,2,32L13,32Q13.0983,32,13.196,31.99037Q13.2938,31.98074,13.3902,31.961570000000002Q13.4865,31.9424,13.5806,31.91388Q13.6746,31.88536,13.7654,31.84776Q13.8561,31.81016,13.9428,31.763840000000002Q14.0294,31.71753,14.1111,31.66294Q14.1928,31.60835,14.2688,31.54602Q14.3447,31.48369,14.4142,31.41421Q14.4837,31.34474,14.546,31.26879Q14.6084,31.19284,14.6629,31.11114Q14.7175,31.02944,14.7638,30.94279Q14.8102,30.85614,14.8478,30.76537Q14.8854,30.674590000000002,14.9139,30.58057Q14.9424,30.48655,14.9616,30.39018Q14.9807,30.29381,14.9904,30.19603Q15,30.09825,15,30L15,26Q15,25.90175,14.9904,25.80397Q14.9807,25.70619,14.9616,25.60982Q14.9424,25.51345,14.9139,25.41943Q14.8854,25.32541,14.8478,25.23463Q14.8102,25.14386,14.7638,25.05721Q14.7175,24.970554,14.6629,24.888859Q14.6084,24.807164,14.546,24.731213Q14.4837,24.655262,14.4142,24.585786Q14.3447,24.516311,14.2688,24.453979Q14.1928,24.391648,14.1111,24.337061Q14.0294,24.282474,13.9428,24.236157Q13.8561,24.189841,13.7654,24.152241Q13.6746,24.114641,13.5806,24.0861193Q13.4865,24.0575978,13.3902,24.0384294Q13.2938,24.0192611,13.196,24.00963055Q13.0983,24,13,24L2,24Q1.90175,24,1.80397,24.00963055Q1.70619,24.0192611,1.60982,24.0384294Q1.51345,24.0575978,1.41943,24.0861193Q1.32541,24.114641,1.23463,24.152241Q1.14386,24.189841,1.05721,24.236157Q0.970554,24.282474,0.888859,24.337061Q0.807164,24.391648,0.731213,24.453979Q0.655262,24.516311,0.585786,24.585786Q0.516311,24.655262,0.453979,24.731213Q0.391648,24.807164,0.337061,24.888859Q0.282474,24.970554,0.236157,25.05721Q0.189841,25.14386,0.152241,25.23463Q0.114641,25.32541,0.0861193,25.41943Q0.0575978,25.51345,0.0384294,25.60982Q0.0192611,25.70619,0.00963055,25.80397Q0,25.90175,0,26ZM1,26L1,30Q1,30.098489999999998,1.01921,30.19509Q1.03843,30.29169,1.07612,30.38268Q1.11381,30.47368,1.16853,30.55557Q1.22325,30.63746,1.29289,30.70711Q1.36254,30.77675,1.44443,30.83147Q1.52632,30.88619,1.61732,30.92388Q1.70831,30.961570000000002,1.80491,30.98078Q1.90151,31,2,31L13,31Q13.0985,31,13.1951,30.98078Q13.2917,30.961570000000002,13.3827,30.92388Q13.4737,30.88619,13.5556,30.83147Q13.6375,30.77675,13.7071,30.70711Q13.7767,30.63746,13.8315,30.55557Q13.8862,30.47368,13.9239,30.38268Q13.9616,30.29169,13.9808,30.19509Q14,30.098489999999998,14,30L14,26Q14,25.901510000000002,13.9808,25.80491Q13.9616,25.70831,13.9239,25.61732Q13.8862,25.52632,13.8315,25.44443Q13.7767,25.36254,13.7071,25.29289Q13.6375,25.22325,13.5556,25.16853Q13.4737,25.11381,13.3827,25.07612Q13.2917,25.038429999999998,13.1951,25.01921Q13.0985,25,13,25L2,25Q1.90151,25,1.80491,25.01921Q1.70831,25.038429999999998,1.61732,25.07612Q1.52632,25.11381,1.44443,25.16853Q1.36254,25.22325,1.29289,25.29289Q1.22325,25.36254,1.16853,25.44443Q1.11381,25.52632,1.07612,25.61732Q1.03843,25.70831,1.01921,25.80491Q1,25.901510000000002,1,26Z" fill-rule="evenodd" fill="#4FF5C0" fill-opacity="1"/></g><g><rect x="15" y="26" width="1" height="4" rx="0" fill="#4FF5C0" fill-opacity="1"/></g><g><rect x="2" y="26" width="2" height="4" rx="0" fill="#4FF5C0" fill-opacity="1"/></g></g></svg>