<svg xmlns="http://www.w3.org/2000/svg" xmlns:xlink="http://www.w3.org/1999/xlink" fill="none" version="1.1" width="24" height="24" viewBox="0 0 24 24"><g><g style="opacity:0.10000000149011612;"></g><g><path d="M7.708,11Q7.5,10,7.5,9Q7.5,8,7.708,7C8.10843,5.07488,10.03368,4,12,4C13.9663,4,15.8916,5.07488,16.292,7Q16.5,8,16.5,9Q16.5,10,16.292,11C15.8916,12.92512,13.9663,14,12,14C10.03368,14,8.10843,12.92512,7.708,11ZM12,15C10.60653,15,9.26321,14.5789,8.21242,13.82816L5.218,15.0758C3.874886,15.6355,3,16.9478,3,18.4028L3,18.5286C3,18.830399999999997,3.119904,19.1199,3.333333,19.3333C3.760193,19.760199999999998,4.33914,20,4.94281,20L19.0572,20C19.6609,20,20.2398,19.760199999999998,20.6667,19.3333C20.8801,19.1199,21,18.830399999999997,21,18.5286L21,18.4028C21,16.9478,20.1251,15.6355,18.782,15.0758L15.7876,13.82816C14.7368,14.5789,13.3935,15,12,15Z" fill-rule="evenodd" fill="#4FF5C0" fill-opacity="1"/></g></g></svg>