<svg xmlns="http://www.w3.org/2000/svg" xmlns:xlink="http://www.w3.org/1999/xlink" fill="none" version="1.1" width="24" height="24" viewBox="0 0 24 24"><g><g style="opacity:0.10000000149011612;"></g><g><path d="M12.000001907348633,20.99999761581421C16.97060190734863,20.99999761581421,21.000001907348633,16.970597615814206,21.000001907348633,11.999997615814209C21.000001907348633,7.029437615814209,16.97060190734863,2.999997615814209,12.000001907348633,2.999997615814209C7.029441907348633,2.999997615814209,3.000001907348633,7.029437615814209,3.000001907348633,11.999997615814209C3.000001907348633,16.970597615814206,7.029441907348633,20.99999761581421,12.000001907348633,20.99999761581421ZM17.611401907348633,7.802757615814209Q19.000001907348633,9.613787615814209,19.000001907348633,11.999997615814209Q19.000001907348633,14.899497615814209,16.949701907348633,16.94969761581421Q14.899501907348633,18.99999761581421,12.000001907348633,18.99999761581421Q9.613791907348633,18.99999761581421,7.802761907348633,17.61139761581421L17.611401907348633,7.802757615814209ZM16.196901907348632,6.388377615814209Q14.386001907348632,4.999997615814209,12.000001907348633,4.999997615814209Q9.100501907348633,4.999997615814209,7.050251907348633,7.050247615814209Q5.000001907348633,9.10049761581421,5.000001907348633,11.999997615814209Q5.000001907348633,14.385997615814208,6.3883819073486325,16.19689761581421L16.196901907348632,6.388377615814209Z" fill-rule="evenodd" fill="#4FF5C0" fill-opacity="1"/></g></g></svg>