<svg xmlns="http://www.w3.org/2000/svg" xmlns:xlink="http://www.w3.org/1999/xlink" fill="none" version="1.1" width="90" height="90" viewBox="0 0 90 90"><g transform="matrix(0,1,-1,0,90,-90)"><g><rect x="90" y="45" width="10" height="1" rx="0" fill="#4FF5C0" fill-opacity="1"/></g><g><rect x="170" y="45" width="10" height="1" rx="0" fill="#4FF5C0" fill-opacity="1"/></g><g transform="matrix(0,-1,1,0,45,225)"><rect x="135" y="90" width="10" height="1" rx="0" fill="#4FF5C0" fill-opacity="1"/></g><g transform="matrix(0,-1,1,0,125,145)"><rect x="135" y="10" width="10" height="1" rx="0" fill="#4FF5C0" fill-opacity="1"/></g><g transform="matrix(0.8314695954322815,-0.5555702447891235,0.5555702447891235,0.8314695954322815,-22.444432057953236,66.01196564621569)"><rect x="97.58392333984375" y="70.00067138671875" width="5" height="1" rx="0" fill="#4FF5C0" fill-opacity="1"/></g><g transform="matrix(0.8314695954322815,-0.5555702447891235,0.5555702447891235,0.8314695954322815,15.702419364173693,97.31825463501809)"><rect x="168.25885009765625" y="22.77716064453125" width="5" height="1" rx="0" fill="#4FF5C0" fill-opacity="1"/></g><g transform="matrix(-0.5555702447891235,-0.8314695954322815,0.8314695954322815,-0.5555702447891235,180.36586583332246,261.2398357449565)"><rect x="160.000732421875" y="82.4161376953125" width="5" height="1" rx="0" fill="#4FF5C0" fill-opacity="1"/></g><g transform="matrix(-0.5555702447891235,-0.8314695954322815,0.8314695954322815,-0.5555702447891235,165.67043042682053,112.0351092561541)"><rect x="112.7772216796875" y="11.7412109375" width="5" height="1" rx="0" fill="#4FF5C0" fill-opacity="1"/></g><g transform="matrix(0.8314695954322815,0.5555702447891235,-0.5555702447891235,0.8314695954322815,27.55686940050873,-50.84416141648762)"><rect x="97.58380126953125" y="19.99932861328125" width="5" height="1" rx="0" fill="#4FF5C0" fill-opacity="1"/></g><g transform="matrix(0.8314695954322815,0.5555702447891235,-0.5555702447891235,0.8314695954322815,65.70368691331896,-82.1504606915696)"><rect x="168.25872802734375" y="67.2227783203125" width="5" height="1" rx="0" fill="#4FF5C0" fill-opacity="1"/></g><g transform="matrix(0.5555702447891235,-0.8314695954322815,0.8314695954322815,0.5555702447891235,-19.639565103490895,128.0892304123845)"><rect x="109.999267578125" y="82.4161376953125" width="5" height="1" rx="0" fill="#4FF5C0" fill-opacity="1"/></g><g transform="matrix(0.5555702447891235,-0.8314695954322815,0.8314695954322815,0.5555702447891235,60.112020974382176,135.9441033855619)"><rect x="157.2227783203125" y="11.7412109375" width="5" height="1" rx="0" fill="#4FF5C0" fill-opacity="1"/></g><g transform="matrix(0.9807852506637573,-0.19509032368659973,0.19509032368659973,0.9807852506637573,-8.74583183136565,18.7601599302252)"><rect x="90.8646240234375" y="53.779052734375" width="5" height="1" rx="0" fill="#4FF5C0" fill-opacity="1"/></g><g transform="matrix(0.9807852506637573,-0.19509032368659973,0.19509032368659973,0.9807852506637573,-3.908847512484499,34.705576871156154)"><rect x="174.23138427734375" y="37.1964111328125" width="5" height="1" rx="0" fill="#4FF5C0" fill-opacity="1"/></g><g transform="matrix(-0.19509032368659973,-0.9807852506637573,0.9807852506637573,-0.19509032368659973,84.4062926014958,247.5411996040384)"><rect x="143.779052734375" y="89.1353759765625" width="5" height="1" rx="0" fill="#4FF5C0" fill-opacity="1"/></g><g transform="matrix(-0.19509032368659973,-0.9807852506637573,0.9807852506637573,-0.19509032368659973,146.35335399243377,131.64632094525768)"><rect x="127.19635009765625" y="5.76861572265625" width="5" height="1" rx="0" fill="#4FF5C0" fill-opacity="1"/></g><g transform="matrix(0.9807852506637573,0.19509032368659973,-0.19509032368659973,0.9807852506637573,8.812285393059938,-17.030833662738587)"><rect x="90.8646240234375" y="36.22088623046875" width="5" height="1" rx="0" fill="#4FF5C0" fill-opacity="1"/></g><g transform="matrix(0.9807852506637573,0.19509032368659973,-0.19509032368659973,0.9807852506637573,13.649281619309477,-32.97624943089431)"><rect x="174.23138427734375" y="52.8035888671875" width="5" height="1" rx="0" fill="#4FF5C0" fill-opacity="1"/></g><g transform="matrix(0.19509032368659973,-0.9807852506637573,0.9807852506637573,0.19509032368659973,14.17381047195704,195.54146103813218)"><rect x="126.22088623046875" y="89.13531494140625" width="5" height="1" rx="0" fill="#4FF5C0" fill-opacity="1"/></g><g transform="matrix(0.19509032368659973,-0.9807852506637573,0.9807852506637573,0.19509032368659973,109.2862771363325,144.7028191891004)"><rect x="142.8035888671875" y="5.7685546875" width="5" height="1" rx="0" fill="#4FF5C0" fill-opacity="1"/></g><g transform="matrix(0.9238795042037964,-0.3826834559440613,0.3826834559440613,0.9238795042037964,-16.6992727935758,40.48861275970194)"><rect x="93.42535400390625" y="62.22076416015625" width="5" height="1" rx="0" fill="#4FF5C0" fill-opacity="1"/></g><g transform="matrix(0.9238795042037964,-0.3826834559440613,0.3826834559440613,0.9238795042037964,1.7264333490966237,68.06460440631417)"><rect x="171.95513916015625" y="29.692626953125" width="5" height="1" rx="0" fill="#4FF5C0" fill-opacity="1"/></g><g transform="matrix(-0.3826834559440613,-0.9238795042037964,0.9238795042037964,-0.3826834559440613,130.48856323274958,260.3388340633901)"><rect x="152.220703125" y="86.5745849609375" width="5" height="1" rx="0" fill="#4FF5C0" fill-opacity="1"/></g><g transform="matrix(-0.3826834559440613,-0.9238795042037964,0.9238795042037964,-0.3826834559440613,158.0645894315967,121.7049764426265)"><rect x="119.692626953125" y="8.0447998046875" width="5" height="1" rx="0" fill="#4FF5C0" fill-opacity="1"/></g><g transform="matrix(0.9238795042037964,0.3826834559440613,-0.3826834559440613,0.9238795042037964,17.742238241389714,-33.63776813804361)"><rect x="93.42535400390625" y="27.77923583984375" width="5" height="1" rx="0" fill="#4FF5C0" fill-opacity="1"/></g><g transform="matrix(0.9238795042037964,0.3826834559440613,-0.3826834559440613,0.9238795042037964,36.16792102691761,-61.213764430682204)"><rect x="171.95513916015625" y="60.30731201171875" width="5" height="1" rx="0" fill="#4FF5C0" fill-opacity="1"/></g><g transform="matrix(0.3826834559440613,-0.9238795042037964,0.9238795042037964,0.3826834559440613,-7.277451478170406,162.25768921525014)"><rect x="117.7791748046875" y="86.5745849609375" width="5" height="1" rx="0" fill="#4FF5C0" fill-opacity="1"/></g><g transform="matrix(0.3826834559440613,-0.9238795042037964,0.9238795042037964,0.3826834559440613,85.35476474243842,143.83203291264363)"><rect x="150.30731201171875" y="8.0447998046875" width="5" height="1" rx="0" fill="#4FF5C0" fill-opacity="1"/></g><g transform="matrix(0.7071067690849304,0.7071067690849304,-0.7071067690849304,0.7071067690849304,39.54056656360626,-69.09901646169601)"><rect x="103.18017578125" y="13.18017578125" width="5" height="1" rx="0" fill="#4FF5C0" fill-opacity="1"/></g><g transform="matrix(0.7071067690849304,0.7071067690849304,-0.7071067690849304,0.7071067690849304,99.64469254016876,-93.994959141055)"><rect x="163.2843017578125" y="73.2843017578125" width="5" height="1" rx="0" fill="#4FF5C0" fill-opacity="1"/></g><g transform="matrix(0.7071067690849304,-0.7071067690849304,0.7071067690849304,0.7071067690849304,-24.099042654037476,95.45940724405227)"><rect x="103.18017578125" y="76.81982421875" width="5" height="1" rx="0" fill="#4FF5C0" fill-opacity="1"/></g><g transform="matrix(0.7071067690849304,-0.7071067690849304,0.7071067690849304,0.7071067690849304,36.00504016415289,120.35536780019538)"><rect x="163.2843017578125" y="16.71575927734375" width="5" height="1" rx="0" fill="#4FF5C0" fill-opacity="1"/></g><g><path d="M131.81,16.955Q132.18,16.955,132.6,16.759999999999998Q133.02,16.565,133.44,16.105Q133.34,15.165,132.925,14.684999999999999Q132.51,14.205,131.8,14.205Q131.51,14.205,131.265,14.305Q131.02,14.405000000000001,130.84,14.59Q130.66,14.775,130.555,15.035Q130.45,15.295,130.45,15.605Q130.45,16.265,130.795,16.61Q131.14,16.955,131.81,16.955ZM130.25,18.985Q130.49,19.215,130.82,19.355Q131.15,19.494999999999997,131.52,19.494999999999997Q131.9,19.494999999999997,132.245,19.355Q132.59,19.215,132.855,18.89Q133.12,18.564999999999998,133.28,18.045Q133.44,17.525,133.46,16.755Q133.07,17.134999999999998,132.605,17.355Q132.14,17.575,131.65,17.575Q131.21,17.575,130.845,17.45Q130.48,17.325,130.22,17.08Q129.96,16.835,129.815,16.465Q129.67,16.095,129.67,15.605Q129.67,15.145,129.84,14.77Q130.01,14.395,130.305,14.125Q130.6,13.855,130.985,13.705Q131.37,13.555,131.79,13.555Q132.31,13.555,132.76,13.745000000000001Q133.21,13.935,133.54,14.32Q133.87,14.705,134.055,15.280000000000001Q134.24,15.855,134.24,16.625Q134.24,17.585,134.015,18.259999999999998Q133.79,18.935000000000002,133.42,19.36Q133.05,19.785,132.57,19.98Q132.09,20.175,131.57,20.175Q130.98,20.175,130.545,19.985Q130.11,19.795,129.79,19.505000000000003L130.25,18.985ZM138,20.175Q136.93,20.175,136.32,19.310000000000002Q135.71,18.445,135.71,16.845Q135.71,15.235,136.32,14.395Q136.93,13.555,138,13.555Q139.07,13.555,139.68,14.395Q140.29,15.235,140.29,16.845Q140.29,18.445,139.68,19.310000000000002Q139.07,20.175,138,20.175ZM138,14.215Q137.67,14.215,137.39,14.365Q137.11,14.515,136.905,14.84Q136.7,15.165,136.59,15.66Q136.48,16.155,136.48,16.845Q136.48,18.215,136.905,18.865000000000002Q137.33,19.515,138,19.515Q138.67,19.515,139.095,18.865000000000002Q139.52,18.215,139.52,16.845Q139.52,16.155,139.41,15.66Q139.3,15.165,139.095,14.84Q138.89,14.515,138.61,14.365Q138.33,14.215,138,14.215ZM138,17.445Q137.75,17.445,137.565,17.27Q137.38,17.095,137.38,16.775Q137.38,16.465,137.565,16.29Q137.75,16.115000000000002,138,16.115000000000002Q138.25,16.115000000000002,138.435,16.29Q138.62,16.465,138.62,16.775Q138.62,17.095,138.435,17.27Q138.25,17.445,138,17.445Z" fill="#4FF5C0" fill-opacity="1"/></g><g transform="matrix(-1,-5.2146120310681e-8,5.2146120310681e-8,-1,295.9999958283104,160.0000077176258)"><path d="M149.34,86.765L152.66,86.765L152.66,87.485L149.34,87.485L149.34,86.765ZM156.81,86.955Q157.18,86.955,157.6,86.76Q158.02,86.565,158.44,86.105Q158.34,85.165,157.925,84.685Q157.51,84.205,156.8,84.205Q156.51,84.205,156.265,84.305Q156.02,84.405,155.84,84.59Q155.66,84.775,155.555,85.035Q155.45,85.295,155.45,85.605Q155.45,86.265,155.795,86.61Q156.14,86.955,156.81,86.955ZM155.25,88.985Q155.49,89.215,155.82,89.355Q156.15,89.495,156.52,89.495Q156.9,89.495,157.245,89.355Q157.59,89.215,157.855,88.89Q158.12,88.565,158.28,88.045Q158.44,87.525,158.46,86.755Q158.07,87.135,157.605,87.355Q157.14,87.575,156.65,87.575Q156.21,87.575,155.845,87.45Q155.48,87.325,155.22,87.08Q154.96,86.835,154.815,86.465Q154.67,86.095,154.67,85.605Q154.67,85.145,154.84,84.77Q155.01,84.395,155.305,84.125Q155.6,83.855,155.985,83.705Q156.37,83.555,156.79,83.555Q157.31,83.555,157.76,83.745Q158.21,83.935,158.54,84.32Q158.87,84.705,159.055,85.28Q159.24,85.855,159.24,86.625Q159.24,87.585,159.015,88.26Q158.79,88.935,158.42,89.36Q158.05,89.785,157.57,89.98Q157.09,90.175,156.57,90.175Q155.98,90.175,155.545,89.985Q155.11,89.795,154.79,89.505L155.25,88.985ZM163,90.175Q161.93,90.175,161.32,89.31Q160.71,88.445,160.71,86.845Q160.71,85.235,161.32,84.395Q161.93,83.555,163,83.555Q164.07,83.555,164.68,84.395Q165.29,85.235,165.29,86.845Q165.29,88.445,164.68,89.31Q164.07,90.175,163,90.175ZM163,84.215Q162.67,84.215,162.39,84.365Q162.11,84.515,161.905,84.84Q161.7,85.165,161.59,85.66Q161.48,86.155,161.48,86.845Q161.48,88.215,161.905,88.865Q162.33,89.515,163,89.515Q163.67,89.515,164.095,88.865Q164.52,88.215,164.52,86.845Q164.52,86.155,164.41,85.66Q164.3,85.165,164.095,84.84Q163.89,84.515,163.61,84.365Q163.33,84.215,163,84.215ZM163,87.445Q162.75,87.445,162.565,87.27Q162.38,87.095,162.38,86.775Q162.38,86.465,162.565,86.29Q162.75,86.115,163,86.115Q163.25,86.115,163.435,86.29Q163.62,86.465,163.62,86.775Q163.62,87.095,163.435,87.27Q163.25,87.445,163,87.445Z" fill="#4FF5C0" fill-opacity="1"/></g><g transform="matrix(0,1,-1,0,207,-133)"><path d="M175.28,46.375L175.28,47.055L170.98,47.055L170.98,46.375L172.79,46.375L172.79,41.675L171.43,41.675L171.43,41.144999999999996Q171.94,41.065,172.32,40.95Q172.7,40.835,173,40.675L173.61,40.675L173.61,46.375L175.28,46.375ZM177.43,45.345Q177.43,45.885,177.865,46.225Q178.3,46.565,179.04,46.565Q179.76,46.565,180.14,46.255Q180.52,45.945,180.52,45.445Q180.52,45.115,180.365,44.89Q180.21,44.665,179.94,44.505Q179.67,44.345,179.305,44.22Q178.94,44.095,178.52,43.955Q178.05,44.215,177.74,44.54Q177.43,44.865,177.43,45.345ZM179.52,43.575Q180.32,42.995,180.32,42.295Q180.32,41.815,179.99,41.49Q179.66,41.165,179.03,41.165Q178.49,41.165,178.16,41.445Q177.83,41.725,177.83,42.195Q177.83,42.485,177.96,42.69Q178.09,42.894999999999996,178.32,43.055Q178.55,43.215,178.855,43.34Q179.16,43.465,179.52,43.575ZM176.68,45.425Q176.68,45.095,176.8,44.835Q176.92,44.575,177.11,44.365Q177.3,44.155,177.545,44Q177.79,43.845,178.05,43.725L178.05,43.685Q177.65,43.435,177.365,43.07Q177.08,42.705,177.08,42.195Q177.08,41.825,177.225,41.525Q177.37,41.225,177.635,41.01Q177.9,40.795,178.26,40.675Q178.62,40.555,179.05,40.555Q179.52,40.555,179.885,40.68Q180.25,40.805,180.505,41.03Q180.76,41.255,180.895,41.57Q181.03,41.885,181.03,42.255Q181.03,42.705,180.745,43.1Q180.46,43.495,180.06,43.775L180.06,43.815Q180.32,43.945,180.55,44.095Q180.78,44.245,180.95,44.435Q181.12,44.625,181.215,44.88Q181.31,45.135,181.31,45.475Q181.31,45.835,181.155,46.144999999999996Q181,46.455,180.71,46.685Q180.42,46.915,179.995,47.045Q179.57,47.175,179.02,47.175Q178.48,47.175,178.045,47.045Q177.61,46.915,177.31,46.68Q177.01,46.445,176.845,46.125Q176.68,45.805,176.68,45.425ZM185,47.175Q183.93,47.175,183.32,46.31Q182.71,45.445,182.71,43.845Q182.71,42.235,183.32,41.394999999999996Q183.93,40.555,185,40.555Q186.07,40.555,186.68,41.394999999999996Q187.29,42.235,187.29,43.845Q187.29,45.445,186.68,46.31Q186.07,47.175,185,47.175ZM185,41.215Q184.67,41.215,184.39,41.365Q184.11,41.515,183.905,41.84Q183.7,42.165,183.59,42.66Q183.48,43.155,183.48,43.845Q183.48,45.215,183.905,45.865Q184.33,46.515,185,46.515Q185.67,46.515,186.095,45.865Q186.52,45.215,186.52,43.845Q186.52,43.155,186.41,42.66Q186.3,42.165,186.095,41.84Q185.89,41.515,185.61,41.365Q185.33,41.215,185,41.215ZM185,44.445Q184.75,44.445,184.565,44.269999999999996Q184.38,44.095,184.38,43.775Q184.38,43.465,184.565,43.29Q184.75,43.115,185,43.115Q185.25,43.115,185.435,43.29Q185.62,43.465,185.62,43.775Q185.62,44.095,185.435,44.269999999999996Q185.25,44.445,185,44.445Z" fill="#4FF5C0" fill-opacity="1"/></g><g transform="matrix(0,-1,1,0,51.5,148.5)"><path d="M103,58.675Q101.93,58.675,101.32,57.81Q100.71,56.945,100.71,55.345Q100.71,53.735,101.32,52.894999999999996Q101.93,52.055,103,52.055Q104.07,52.055,104.68,52.894999999999996Q105.29,53.735,105.29,55.345Q105.29,56.945,104.68,57.81Q104.07,58.675,103,58.675ZM103,52.715Q102.67,52.715,102.39,52.865Q102.11,53.015,101.905,53.34Q101.7,53.665,101.59,54.16Q101.48,54.655,101.48,55.345Q101.48,56.715,101.905,57.365Q102.33,58.015,103,58.015Q103.67,58.015,104.095,57.365Q104.52,56.715,104.52,55.345Q104.52,54.655,104.41,54.16Q104.3,53.665,104.095,53.34Q103.89,53.015,103.61,52.865Q103.33,52.715,103,52.715ZM103,55.945Q102.75,55.945,102.565,55.769999999999996Q102.38,55.595,102.38,55.275Q102.38,54.965,102.565,54.79Q102.75,54.615,103,54.615Q103.25,54.615,103.435,54.79Q103.62,54.965,103.62,55.275Q103.62,55.595,103.435,55.769999999999996Q103.25,55.945,103,55.945Z" fill="#4FF5C0" fill-opacity="1"/></g></g></svg>