<svg xmlns="http://www.w3.org/2000/svg" xmlns:xlink="http://www.w3.org/1999/xlink" fill="none" version="1.1" width="24" height="24" viewBox="0 0 24 24"><g><g></g><g><path d="M16.13333,10.4C15.06667,11.2,15.06667,12.8,16.13333,13.6L20.4,16.8C21.05924,17.2944,22,16.823999999999998,22,16L22,8C22,7.17595,21.05924,6.705573,20.4,7.2L16.13333,10.4Z" fill="#4FF5C0" fill-opacity="1"/></g><g><path d="M14.723,13.34535C14.0295,12.5825,14.0295,11.4175,14.723,10.65465L16,9.25L16,8Q16,7.90175,15.9904,7.80397Q15.9807,7.70619,15.9616,7.60982Q15.9424,7.51345,15.9139,7.41943Q15.8854,7.32541,15.8478,7.23463Q15.8102,7.14386,15.7638,7.0572099999999995Q15.7175,6.970554,15.6629,6.888859Q15.6084,6.807164,15.546,6.731213Q15.4837,6.6552620000000005,15.4142,6.585786Q15.3447,6.516311,15.2688,6.453979Q15.1928,6.391648,15.1111,6.337061Q15.0294,6.282474,14.9428,6.236157Q14.8561,6.189841,14.7654,6.152241Q14.6746,6.114641,14.5806,6.0861193Q14.4865,6.0575978,14.3902,6.0384294Q14.2938,6.0192611,14.196,6.00963055Q14.0983,6,14,6L4,6Q3.90175,6,3.80397,6.00963055Q3.7061900000000003,6.0192611,3.60982,6.0384294Q3.5134499999999997,6.0575978,3.41943,6.0861193Q3.3254099999999998,6.114641,3.23463,6.152241Q3.14386,6.189841,3.05721,6.236157Q2.970554,6.282474,2.888859,6.337061Q2.807164,6.391648,2.731213,6.453979Q2.655262,6.516311,2.585786,6.585786Q2.516311,6.6552620000000005,2.453979,6.731213Q2.391648,6.807164,2.337061,6.888859Q2.282474,6.970554,2.236157,7.0572099999999995Q2.189841,7.14386,2.152241,7.23463Q2.114641,7.32541,2.0861193,7.41943Q2.0575978,7.51345,2.0384294,7.60982Q2.0192611,7.70619,2.00963055,7.80397Q2,7.90175,2,8L2,16Q2,16.098300000000002,2.00963055,16.195999999999998Q2.0192611,16.293799999999997,2.0384294,16.3902Q2.0575978,16.4865,2.0861193,16.5806Q2.114641,16.674599999999998,2.152241,16.7654Q2.189841,16.856099999999998,2.236157,16.9428Q2.282474,17.029400000000003,2.337061,17.1111Q2.391648,17.1928,2.453979,17.2688Q2.516311,17.3447,2.585786,17.4142Q2.655262,17.4837,2.731213,17.546Q2.807164,17.6084,2.888859,17.6629Q2.970554,17.7175,3.05721,17.7638Q3.14386,17.810200000000002,3.23463,17.8478Q3.3254099999999998,17.8854,3.41943,17.913899999999998Q3.5134499999999997,17.9424,3.60982,17.9616Q3.7061900000000003,17.9807,3.80397,17.9904Q3.90175,18,4,18L14,18Q14.0983,18,14.196,17.9904Q14.2938,17.9807,14.3902,17.9616Q14.4865,17.9424,14.5806,17.913899999999998Q14.6746,17.8854,14.7654,17.8478Q14.8561,17.810200000000002,14.9428,17.7638Q15.0294,17.7175,15.1111,17.6629Q15.1928,17.6084,15.2688,17.546Q15.3447,17.4837,15.4142,17.4142Q15.4837,17.3447,15.546,17.2688Q15.6084,17.1928,15.6629,17.1111Q15.7175,17.029400000000003,15.7638,16.9428Q15.8102,16.856099999999998,15.8478,16.7654Q15.8854,16.674599999999998,15.9139,16.5806Q15.9424,16.4865,15.9616,16.3902Q15.9807,16.293799999999997,15.9904,16.195999999999998Q16,16.098300000000002,16,16L16,14.75L14.723,13.34535Z" fill-rule="evenodd" fill="#4FF5C0" fill-opacity="1"/></g></g></svg>