<svg xmlns="http://www.w3.org/2000/svg" xmlns:xlink="http://www.w3.org/1999/xlink" fill="none" version="1.1" width="24" height="24" viewBox="0 0 24 24"><g><g style="opacity:0.10000000149011612;"></g><g><path d="M10.998419694824218,21L12.998419694824218,21C13.26362969482422,21,13.51798969482422,20.8946,13.70549969482422,20.7071C13.893099694824219,20.5196,13.998399694824219,20.2652,13.998399694824219,20C13.998399694824219,19.2336,14.52319969482422,18.573700000000002,15.204499694824218,18.2226C15.402999694824219,18.1204,15.59639969482422,18.008699999999997,15.784199694824219,17.887900000000002C16.428899694824217,17.473399999999998,17.262799694824217,17.3489,17.92659969482422,17.732100000000003C18.404899694824216,18.0083,19.01649969482422,17.8444,19.29259969482422,17.3661L20.29259969482422,15.6341C20.56869969482422,15.1558,20.40489969482422,14.5442,19.92659969482422,14.268C19.262799694824217,13.8848,18.953699694824216,13.1004,18.99039969482422,12.33479C19.00109969482422,12.11177,19.00109969482422,11.88837,18.99039969482422,11.66535C18.953699694824216,10.89978,19.262799694824217,10.11532,19.92659969482422,9.732099999999999C20.40489969482422,9.455960000000001,20.568799694824218,8.84437,20.29259969482422,8.36608L19.29259969482422,6.63402C19.15999969482422,6.4043399999999995,18.94159969482422,6.23674,18.68539969482422,6.1681C18.42919969482422,6.0994600000000005,18.15629969482422,6.13539,17.92659969482422,6.268C17.262799694824217,6.65122,16.43599969482422,6.53243,15.791899694824219,6.11707C15.69559969482422,6.05497,15.597699694824218,5.99521,15.498399694824219,5.937860000000001C15.39909969482422,5.8805,15.29839969482422,5.82563,15.196399694824219,5.77328C14.514599694824218,5.4231,13.998399694824219,4.76648,13.998399694824219,4C13.998399694824219,3.734784,13.893099694824219,3.48043,13.70549969482422,3.292893C13.51798969482422,3.105357,13.26362969482422,3.000000238419,12.998419694824218,3L10.998419694824218,3C10.733199694824219,2.999999761581,10.47884969482422,3.105356,10.291309694824218,3.292892C10.10376969482422,3.480428,9.998419694824218,3.734783,9.998419694824218,4C9.998419694824218,4.76647,9.47360969482422,5.42638,8.792259694824219,5.77744C8.593779694824219,5.8797,8.40030969482422,5.99141,8.212499694824219,6.11217C7.567829694824219,6.52669,6.733929694824219,6.651260000000001,6.0701696948242185,6.26804C5.591869694824219,5.99189,4.980279694824219,6.15577,4.704139694824219,6.63406L3.704140694824219,8.366109999999999C3.4279986948242187,8.84441,3.591874094824219,9.456,4.070166694824219,9.732140000000001C4.733949694824219,10.11537,5.0430496948242185,10.89977,5.006409694824219,11.66536C4.9957296948242185,11.88837,4.9957296948242185,12.11177,5.006409694824219,12.33478C5.043059694824219,13.1004,4.733959694824219,13.8848,4.070181694824218,14.268C3.8404976948242187,14.4006,3.6728996948242187,14.619,3.6042565948242187,14.8752C3.535613094824219,15.1314,3.571547984824219,15.4043,3.704156694824219,15.634L4.704159694824218,17.3661C4.980299694824219,17.8444,5.591889694824219,18.008200000000002,6.070179694824219,17.732100000000003C6.733959694824218,17.3489,7.560729694824219,17.467599999999997,8.20488969482422,17.883C8.301189694824219,17.9451,8.399049694824217,18.0049,8.498399694824219,18.0622C8.59774969482422,18.1196,8.698429694824219,18.1744,8.80035969482422,18.2268C9.48212969482422,18.576900000000002,9.998419694824218,19.2336,9.998419694824218,20C9.998419694824218,20.2652,10.10376969482422,20.5196,10.291309694824218,20.7071C10.478839694824218,20.8946,10.733199694824219,21,10.998419694824218,21ZM10.49833969482422,14.5982C11.933219694824219,15.4266,13.76799969482422,14.935,14.59639969482422,13.5001C15.424799694824218,12.06526,14.93319969482422,10.23049,13.49833969482422,9.402059999999999C12.06345969482422,8.573640000000001,10.228689694824219,9.06526,9.400259694824218,10.50014C8.571839694824218,11.93502,9.063459694824218,13.7698,10.49833969482422,14.5982Z" fill-rule="evenodd" fill="#4FF5C0" fill-opacity="1"/></g></g></svg>