<svg xmlns="http://www.w3.org/2000/svg" xmlns:xlink="http://www.w3.org/1999/xlink" fill="none" version="1.1" width="30" height="112" viewBox="0 0 30 112"><g><g><rect x="29" y="6" width="1" height="100" rx="0" fill="#4FF5C0" fill-opacity="1"/></g><g><rect x="20" y="6" width="10" height="1" rx="0" fill="#4FF5C0" fill-opacity="1"/></g><g><rect x="25" y="17" width="5" height="1" rx="0" fill="#4FF5C0" fill-opacity="1"/></g><g><rect x="25" y="28" width="5" height="1" rx="0" fill="#4FF5C0" fill-opacity="1"/></g><g><rect x="25" y="39" width="5" height="1" rx="0" fill="#4FF5C0" fill-opacity="1"/></g><g><rect x="25" y="50" width="5" height="1" rx="0" fill="#4FF5C0" fill-opacity="1"/></g><g><rect x="25" y="61" width="5" height="1" rx="0" fill="#4FF5C0" fill-opacity="1"/></g><g><rect x="20" y="72" width="10" height="1" rx="0" fill="#4FF5C0" fill-opacity="1"/></g><g><rect x="25" y="83" width="5" height="1" rx="0" fill="#4FF5C0" fill-opacity="1"/></g><g><rect x="25" y="94" width="5" height="1" rx="0" fill="#4FF5C0" fill-opacity="1"/></g><g><rect x="20" y="105" width="10" height="1" rx="0" fill="#4FF5C0" fill-opacity="1"/></g><g><path d="M1.34,105.765L4.66,105.765L4.66,106.485L1.34,106.485L1.34,105.765ZM9.68,106.635L9.68,104.655Q9.69,104.395,9.7,104.09Q9.71,103.785,9.73,103.525L9.68,103.525Q9.53,103.755,9.36,103.99Q9.19,104.225,9.03,104.455L7.3,106.635L9.68,106.635ZM11.45,107.295L10.46,107.295L10.46,109.055L9.68,109.055L9.68,107.295L6.39,107.295L6.39,106.745L9.58,102.675L10.46,102.675L10.46,106.635L11.45,106.635L11.45,107.295ZM12.97,107.765Q13.13,107.905,13.31,108.03999999999999Q13.49,108.175,13.705,108.275Q13.92,108.375,14.185,108.435Q14.45,108.495,14.77,108.495Q15.11,108.495,15.405,108.39Q15.7,108.285,15.92,108.095Q16.14,107.905,16.265,107.635Q16.39,107.365,16.39,107.035Q16.39,106.375,15.965,106.005Q15.54,105.635,14.82,105.635Q14.42,105.635,14.14,105.735Q13.86,105.835,13.52,106.025L13.08,105.745L13.29,102.675L16.9,102.675L16.9,103.385L14.02,103.385L13.85,105.275Q14.13,105.155,14.395,105.085Q14.66,105.015,15.03,105.015Q15.49,105.015,15.89,105.135Q16.29,105.255,16.585,105.5Q16.88,105.745,17.05,106.12Q17.22,106.495,17.22,107.015Q17.22,107.535,17.025,107.935Q16.83,108.33500000000001,16.5,108.61Q16.17,108.885,15.745,109.03Q15.32,109.175,14.86,109.175Q14.43,109.175,14.085,109.1Q13.74,109.025,13.465,108.905Q13.19,108.785,12.965,108.63Q12.74,108.475,12.56,108.305L12.97,107.765Z" fill="#4FF5C0" fill-opacity="1"/></g><g><path d="M1.34,94.765L4.66,94.765L4.66,95.485L1.34,95.485L1.34,94.765ZM6.99,96.735Q7.31,97.035,7.755,97.265Q8.2,97.495,8.82,97.495Q9.15,97.495,9.43,97.41Q9.71,97.325,9.915,97.175Q10.12,97.025,10.235,96.81Q10.35,96.595,10.35,96.325Q10.35,96.045,10.225,95.81Q10.1,95.575,9.82,95.405Q9.54,95.235,9.1,95.145Q8.66,95.055,8.03,95.055L8.03,94.425Q8.6,94.425,8.995,94.335Q9.39,94.245,9.64,94.085Q9.89,93.925,10.005,93.705Q10.12,93.485,10.12,93.235Q10.12,92.765,9.765,92.495Q9.41,92.225,8.82,92.225Q8.37,92.225,7.97,92.405Q7.57,92.585,7.25,92.875L6.81,92.355Q7.21,92.005,7.72,91.78Q8.23,91.555,8.85,91.555Q9.3,91.555,9.685,91.665Q10.07,91.775,10.355,91.98Q10.64,92.185,10.8,92.485Q10.96,92.785,10.96,93.175Q10.96,93.755,10.58,94.125Q10.2,94.495,9.6,94.695L9.6,94.735Q9.92,94.805,10.205,94.94Q10.49,95.075,10.71,95.28Q10.93,95.485,11.055,95.755Q11.18,96.025,11.18,96.355Q11.18,96.775,11,97.115Q10.82,97.455,10.505,97.69Q10.19,97.925,9.77,98.05Q9.35,98.175,8.87,98.175Q8.04,98.175,7.48,97.9Q6.92,97.625,6.57,97.275L6.99,96.735ZM15,98.175Q13.93,98.175,13.32,97.31Q12.71,96.445,12.71,94.845Q12.71,93.235,13.32,92.395Q13.93,91.555,15,91.555Q16.07,91.555,16.68,92.395Q17.29,93.235,17.29,94.845Q17.29,96.445,16.68,97.31Q16.07,98.175,15,98.175ZM15,92.215Q14.67,92.215,14.39,92.365Q14.11,92.515,13.905,92.84Q13.7,93.165,13.59,93.66Q13.48,94.155,13.48,94.845Q13.48,96.215,13.905,96.865Q14.33,97.515,15,97.515Q15.67,97.515,16.095,96.865Q16.52,96.215,16.52,94.845Q16.52,94.155,16.41,93.66Q16.3,93.165,16.095,92.84Q15.89,92.515,15.61,92.365Q15.33,92.215,15,92.215ZM15,95.445Q14.75,95.445,14.565,95.27Q14.38,95.095,14.38,94.775Q14.38,94.465,14.565,94.29Q14.75,94.115,15,94.115Q15.25,94.115,15.435,94.29Q15.62,94.465,15.62,94.775Q15.62,95.095,15.435,95.27Q15.25,95.445,15,95.445Z" fill="#4FF5C0" fill-opacity="1"/></g><g><path d="M15,76.175Q13.93,76.175,13.32,75.31Q12.71,74.445,12.71,72.845Q12.71,71.235,13.32,70.395Q13.93,69.555,15,69.555Q16.07,69.555,16.68,70.395Q17.29,71.235,17.29,72.845Q17.29,74.445,16.68,75.31Q16.07,76.175,15,76.175ZM15,70.215Q14.67,70.215,14.39,70.365Q14.11,70.515,13.905,70.84Q13.7,71.165,13.59,71.66Q13.48,72.155,13.48,72.845Q13.48,74.215,13.905,74.865Q14.33,75.515,15,75.515Q15.67,75.515,16.095,74.865Q16.52,74.215,16.52,72.845Q16.52,72.155,16.41,71.66Q16.3,71.165,16.095,70.84Q15.89,70.515,15.61,70.365Q15.33,70.215,15,70.215ZM15,73.445Q14.75,73.445,14.565,73.27Q14.379999999999999,73.095,14.379999999999999,72.775Q14.379999999999999,72.465,14.565,72.29Q14.75,72.115,15,72.115Q15.25,72.115,15.435,72.29Q15.620000000000001,72.465,15.620000000000001,72.775Q15.620000000000001,73.095,15.435,73.27Q15.25,73.445,15,73.445Z" fill="#4FF5C0" fill-opacity="1"/></g><g><path d="M6.99,51.735Q7.3100000000000005,52.035,7.755,52.265Q8.2,52.495,8.82,52.495Q9.15,52.495,9.43,52.41Q9.71,52.325,9.915,52.175Q10.120000000000001,52.025,10.235,51.81Q10.35,51.595,10.35,51.325Q10.35,51.045,10.225,50.81Q10.1,50.575,9.82,50.405Q9.54,50.235,9.1,50.144999999999996Q8.66,50.055,8.03,50.055L8.03,49.425Q8.6,49.425,8.995000000000001,49.335Q9.39,49.245,9.64,49.085Q9.89,48.925,10.004999999999999,48.705Q10.120000000000001,48.485,10.120000000000001,48.235Q10.120000000000001,47.765,9.765,47.495Q9.41,47.225,8.82,47.225Q8.370000000000001,47.225,7.97,47.405Q7.57,47.585,7.25,47.875L6.8100000000000005,47.355000000000004Q7.21,47.005,7.72,46.78Q8.23,46.555,8.85,46.555Q9.3,46.555,9.685,46.665Q10.07,46.775,10.355,46.98Q10.64,47.185,10.8,47.485Q10.96,47.785,10.96,48.175Q10.96,48.755,10.58,49.125Q10.2,49.495,9.6,49.695L9.6,49.735Q9.92,49.805,10.205,49.94Q10.49,50.075,10.71,50.28Q10.93,50.485,11.055,50.755Q11.18,51.025,11.18,51.355000000000004Q11.18,51.775,11,52.115Q10.82,52.455,10.504999999999999,52.69Q10.190000000000001,52.925,9.77,53.05Q9.35,53.175,8.870000000000001,53.175Q8.04,53.175,7.48,52.9Q6.92,52.625,6.57,52.275L6.99,51.735ZM15,53.175Q13.93,53.175,13.32,52.31Q12.71,51.445,12.71,49.845Q12.71,48.235,13.32,47.394999999999996Q13.93,46.555,15,46.555Q16.07,46.555,16.68,47.394999999999996Q17.29,48.235,17.29,49.845Q17.29,51.445,16.68,52.31Q16.07,53.175,15,53.175ZM15,47.215Q14.67,47.215,14.39,47.365Q14.11,47.515,13.905000000000001,47.84Q13.7,48.165,13.59,48.66Q13.48,49.155,13.48,49.845Q13.48,51.215,13.905000000000001,51.865Q14.33,52.515,15,52.515Q15.67,52.515,16.095,51.865Q16.52,51.215,16.52,49.845Q16.52,49.155,16.41,48.66Q16.3,48.165,16.095,47.84Q15.89,47.515,15.61,47.365Q15.33,47.215,15,47.215ZM15,50.445Q14.75,50.445,14.565,50.269999999999996Q14.38,50.095,14.38,49.775Q14.38,49.465,14.565,49.29Q14.75,49.115,15,49.115Q15.25,49.115,15.435,49.29Q15.62,49.465,15.62,49.775Q15.62,50.095,15.435,50.269999999999996Q15.25,50.445,15,50.445Z" fill="#4FF5C0" fill-opacity="1"/></g><g><path d="M9.21,31.525Q9.49,31.525,9.74,31.425Q9.99,31.325,10.17,31.14Q10.35,30.955,10.455,30.7Q10.559999999999999,30.445,10.559999999999999,30.125Q10.559999999999999,29.465,10.21,29.12Q9.86,28.775,9.2,28.775Q8.82,28.775,8.4,28.97Q7.98,29.165,7.57,29.634999999999998Q7.66,30.564999999999998,8.085,31.045Q8.51,31.525,9.21,31.525ZM10.76,26.745Q10.51,26.515,10.18,26.38Q9.85,26.245,9.49,26.245Q9.11,26.245,8.76,26.384999999999998Q8.41,26.525,8.145,26.845Q7.88,27.165,7.715,27.69Q7.55,28.215,7.54,28.985Q7.92,28.605,8.395,28.38Q8.870000000000001,28.155,9.35,28.155Q9.79,28.155,10.155000000000001,28.28Q10.52,28.405,10.785,28.65Q11.05,28.895,11.195,29.265Q11.34,29.634999999999998,11.34,30.125Q11.34,30.585,11.165,30.96Q10.99,31.335,10.7,31.605Q10.41,31.875,10.025,32.025Q9.64,32.175,9.21,32.175Q8.69,32.175,8.245000000000001,31.985Q7.8,31.795,7.47,31.41Q7.14,31.025,6.955,30.45Q6.77,29.875,6.77,29.105Q6.77,28.145,6.99,27.47Q7.21,26.795,7.58,26.37Q7.95,25.945,8.435,25.75Q8.92,25.555,9.44,25.555Q10.030000000000001,25.555,10.465,25.75Q10.9,25.945,11.219999999999999,26.235L10.76,26.745ZM15,32.175Q13.93,32.175,13.32,31.310000000000002Q12.71,30.445,12.71,28.845Q12.71,27.235,13.32,26.395Q13.93,25.555,15,25.555Q16.07,25.555,16.68,26.395Q17.29,27.235,17.29,28.845Q17.29,30.445,16.68,31.310000000000002Q16.07,32.175,15,32.175ZM15,26.215Q14.67,26.215,14.39,26.365000000000002Q14.11,26.515,13.905000000000001,26.84Q13.7,27.165,13.59,27.66Q13.48,28.155,13.48,28.845Q13.48,30.215,13.905000000000001,30.865000000000002Q14.33,31.515,15,31.515Q15.67,31.515,16.095,30.865000000000002Q16.52,30.215,16.52,28.845Q16.52,28.155,16.41,27.66Q16.3,27.165,16.095,26.84Q15.89,26.515,15.61,26.365000000000002Q15.33,26.215,15,26.215ZM15,29.445Q14.75,29.445,14.565,29.27Q14.38,29.095,14.38,28.775Q14.38,28.465,14.565,28.29Q14.75,28.115000000000002,15,28.115000000000002Q15.25,28.115000000000002,15.435,28.29Q15.62,28.465,15.62,28.775Q15.62,29.095,15.435,29.27Q15.25,29.445,15,29.445Z" fill="#4FF5C0" fill-opacity="1"/></g><g><path d="M8.81,6.955Q9.18,6.955,9.6,6.76Q10.02,6.565,10.440000000000001,6.105Q10.34,5.165,9.925,4.685Q9.51,4.205,8.8,4.205Q8.51,4.205,8.265,4.305Q8.02,4.405,7.84,4.59Q7.66,4.775,7.555,5.035Q7.45,5.295,7.45,5.605Q7.45,6.265,7.795,6.61Q8.14,6.955,8.81,6.955ZM7.25,8.985Q7.49,9.215,7.82,9.355Q8.15,9.495,8.52,9.495Q8.9,9.495,9.245000000000001,9.355Q9.59,9.215,9.855,8.89Q10.120000000000001,8.565,10.280000000000001,8.045Q10.440000000000001,7.525,10.46,6.755Q10.07,7.135,9.605,7.355Q9.14,7.575,8.65,7.575Q8.21,7.575,7.845,7.45Q7.48,7.325,7.22,7.08Q6.96,6.835,6.8149999999999995,6.465Q6.67,6.095,6.67,5.605Q6.67,5.145,6.84,4.77Q7.01,4.395,7.305,4.125Q7.6,3.855,7.985,3.705Q8.370000000000001,3.555,8.79,3.555Q9.31,3.555,9.76,3.745Q10.21,3.935,10.54,4.32Q10.870000000000001,4.705,11.055,5.28Q11.24,5.855,11.24,6.625Q11.24,7.585,11.015,8.26Q10.79,8.935,10.42,9.36Q10.05,9.785,9.57,9.98Q9.09,10.175,8.57,10.175Q7.98,10.175,7.545,9.985Q7.11,9.795,6.79,9.505L7.25,8.985ZM15,10.175Q13.93,10.175,13.32,9.31Q12.71,8.445,12.71,6.845Q12.71,5.235,13.32,4.395Q13.93,3.555,15,3.555Q16.07,3.555,16.68,4.395Q17.29,5.235,17.29,6.845Q17.29,8.445,16.68,9.31Q16.07,10.175,15,10.175ZM15,4.215Q14.67,4.215,14.39,4.365Q14.11,4.515,13.905000000000001,4.84Q13.7,5.165,13.59,5.66Q13.48,6.155,13.48,6.845Q13.48,8.215,13.905000000000001,8.865Q14.33,9.515,15,9.515Q15.67,9.515,16.095,8.865Q16.52,8.215,16.52,6.845Q16.52,6.155,16.41,5.66Q16.3,5.165,16.095,4.84Q15.89,4.515,15.61,4.365Q15.33,4.215,15,4.215ZM15,7.445Q14.75,7.445,14.565,7.27Q14.38,7.095,14.38,6.775Q14.38,6.465,14.565,6.29Q14.75,6.115,15,6.115Q15.25,6.115,15.435,6.29Q15.62,6.465,15.62,6.775Q15.62,7.095,15.435,7.27Q15.25,7.445,15,7.445Z" fill="#4FF5C0" fill-opacity="1"/></g></g></svg>