<svg xmlns="http://www.w3.org/2000/svg" xmlns:xlink="http://www.w3.org/1999/xlink" fill="none" version="1.1" width="24" height="24" viewBox="0 0 24 24"><g><g style="opacity:0.20000000298023224;"></g><g><path d="M8,5L16,5L14,3L10,3L8,5Z" fill="#D8D8D8" fill-opacity="1"/></g><g><path d="M3,7L3,17Q3,17.098300000000002,3.00963055,17.195999999999998Q3.0192611,17.293799999999997,3.0384294,17.3902Q3.0575978,17.4865,3.0861193,17.5806Q3.114641,17.674599999999998,3.152241,17.7654Q3.189841,17.856099999999998,3.236157,17.9428Q3.282474,18.029400000000003,3.337061,18.1111Q3.391648,18.1928,3.453979,18.2688Q3.516311,18.3447,3.585786,18.4142Q3.655262,18.4837,3.731213,18.546Q3.807164,18.6084,3.888859,18.6629Q3.970554,18.7175,4.0572099999999995,18.7638Q4.14386,18.810200000000002,4.23463,18.8478Q4.32541,18.8854,4.41943,18.913899999999998Q4.51345,18.9424,4.60982,18.9616Q4.70619,18.9807,4.80397,18.9904Q4.90175,19,5,19L19,19Q19.0983,19,19.196,18.9904Q19.2938,18.9807,19.3902,18.9616Q19.4865,18.9424,19.5806,18.913899999999998Q19.6746,18.8854,19.7654,18.8478Q19.8561,18.810200000000002,19.9428,18.7638Q20.0294,18.7175,20.1111,18.6629Q20.1928,18.6084,20.2688,18.546Q20.3447,18.4837,20.4142,18.4142Q20.4837,18.3447,20.546,18.2688Q20.6084,18.1928,20.6629,18.1111Q20.7175,18.029400000000003,20.7638,17.9428Q20.8102,17.856099999999998,20.8478,17.7654Q20.8854,17.674599999999998,20.9139,17.5806Q20.9424,17.4865,20.9616,17.3902Q20.9807,17.293799999999997,20.9904,17.195999999999998Q21,17.098300000000002,21,17L21,7Q21,6.90175,20.9904,6.80397Q20.9807,6.70619,20.9616,6.60982Q20.9424,6.51345,20.9139,6.41943Q20.8854,6.32541,20.8478,6.23463Q20.8102,6.14386,20.7638,6.0572099999999995Q20.7175,5.970554,20.6629,5.888859Q20.6084,5.807164,20.546,5.731213Q20.4837,5.6552620000000005,20.4142,5.585786Q20.3447,5.516311,20.2688,5.453979Q20.1928,5.391648,20.1111,5.337061Q20.0294,5.282474,19.9428,5.236157Q19.8561,5.189841,19.7654,5.152241Q19.6746,5.114641,19.5806,5.0861193Q19.4865,5.0575978,19.3902,5.0384294Q19.2938,5.0192611,19.196,5.00963055Q19.0983,5,19,5L5,5Q4.90175,5,4.80397,5.00963055Q4.70619,5.0192611,4.60982,5.0384294Q4.51345,5.0575978,4.41943,5.0861193Q4.32541,5.114641,4.23463,5.152241Q4.14386,5.189841,4.0572099999999995,5.236157Q3.970554,5.282474,3.888859,5.337061Q3.807164,5.391648,3.731213,5.453979Q3.655262,5.516311,3.585786,5.585786Q3.516311,5.6552620000000005,3.453979,5.731213Q3.391648,5.807164,3.337061,5.888859Q3.282474,5.970554,3.236157,6.0572099999999995Q3.189841,6.14386,3.152241,6.23463Q3.114641,6.32541,3.0861193,6.41943Q3.0575978,6.51345,3.0384294,6.60982Q3.0192611,6.70619,3.00963055,6.80397Q3,6.90175,3,7ZM12,16C14.2091,16,16,14.20914,16,12C16,9.79086,14.2091,8,12,8C9.79086,8,8,9.79086,8,12C8,14.20914,9.79086,16,12,16ZM13.4142,10.58579Q14,11.17157,14,12Q14,12.82843,13.4142,13.41421Q12.82843,14,12,14Q11.17157,14,10.58579,13.41421Q10,12.82843,10,12Q10,11.17157,10.58579,10.58579Q11.17157,10,12,10Q12.82843,10,13.4142,10.58579Z" fill-rule="evenodd" fill="#D8D8D8" fill-opacity="1"/></g></g></svg>