<svg xmlns="http://www.w3.org/2000/svg" xmlns:xlink="http://www.w3.org/1999/xlink" fill="none" version="1.1" width="210" height="210" viewBox="0 0 210 210"><g><g></g><g><ellipse cx="33" cy="33" rx="2" ry="2" fill="#000000" fill-opacity="1"/></g><g><ellipse cx="177" cy="177" rx="2" ry="2" fill="#000000" fill-opacity="1"/></g><g transform="matrix(1,8.429369557916289e-8,-8.429369557916289e-8,1,0.000014751396726353505,-0.000002613104555848622)"><ellipse cx="33" cy="177" rx="2" ry="2" fill="#000000" fill-opacity="1"/></g><g transform="matrix(1,8.429369557916289e-8,-8.429369557916289e-8,1,0.000002613104555848622,-0.000014751396726353505)"><ellipse cx="177" cy="33" rx="2" ry="2" fill="#000000" fill-opacity="1"/></g><g transform="matrix(0.7071067690849304,-0.7071067690849304,0.7071067690849304,0.7071067690849304,7.329161801153532,75.66473845463406)"><path d="M106.1213,28.98529052734375L96,28.98529052734375C95.447715,28.98529052734375,95,29.43300552734375,95,29.98529052734375C95,30.53757052734375,95.447715,30.98529052734375,96,30.98529052734375L106.1213,30.98529052734375Q106.5355,30.98529052734375,106.8284,31.27818052734375Q107.1213,31.57108052734375,107.1213,31.98529052734375L107.1213,41.90559052734375C107.1213,42.45789052734375,107.569,42.90559052734375,108.1213,42.90559052734375C108.6736,42.90559052734375,109.1213,42.45789052734375,109.1213,41.90559052734375L109.1213,31.98529052734375Q109.1213,30.74265052734375,108.2426,29.86397052734375Q107.364,28.98529058694835,106.1213,28.98529052734375Z" fill-rule="evenodd" fill="#000000" fill-opacity="1"/></g><g transform="matrix(-0.7071068286895752,0.7071067094802856,-0.7071067094802856,-0.7071068286895752,324.01758128208166,227.8075566324187)"><path d="M125.94960810546876,181.010009765625L115.82830810546875,181.010009765625C115.27602310546875,181.010009765625,114.82830810546875,181.457724765625,114.82830810546875,182.010009765625C114.82830810546875,182.562289765625,115.27602310546875,183.010009765625,115.82830810546875,183.010009765625L125.94960810546876,183.010009765625Q126.36380810546875,183.010009765625,126.65670810546875,183.302899765625Q126.94960810546876,183.595799765625,126.94960810546876,184.010009765625L126.94960810546876,193.930309765625C126.94960810546876,194.482609765625,127.39730810546875,194.930309765625,127.94960810546876,194.930309765625C128.50190810546874,194.930309765625,128.94960810546874,194.482609765625,128.94960810546874,193.930309765625L128.94960810546874,184.010009765625Q128.94960810546874,182.767369765625,128.07090810546876,181.888689765625Q127.19230810546875,181.0100098252296,125.94960810546876,181.010009765625Z" fill-rule="evenodd" fill="#000000" fill-opacity="1"/></g><g transform="matrix(-0.7071067690849304,-0.7071067690849304,0.7071067690849304,-0.7071067690849304,-31.916595155857067,216.60368585952892)"><path d="M40.02309443359375,114.9119873046875L29.90179443359375,114.9119873046875C29.34950943359375,114.9119873046875,28.90179443359375,115.3597023046875,28.90179443359375,115.9119873046875C28.90179443359375,116.4642673046875,29.34950943359375,116.9119873046875,29.90179443359375,116.9119873046875L40.02309443359375,116.9119873046875Q40.43729443359375,116.9119873046875,40.73019443359375,117.2048773046875Q41.02309443359375,117.4977773046875,41.02309443359375,117.9119873046875L41.02309443359375,127.8322873046875C41.02309443359375,128.3845873046875,41.47079443359375,128.8322873046875,42.02309443359375,128.8322873046875C42.57539443359375,128.8322873046875,43.02309443359375,128.3845873046875,43.02309443359375,127.8322873046875L43.02309443359375,117.9119873046875Q43.02309443359375,116.6693473046875,42.144394433593746,115.7906673046875Q41.265794433593754,114.9119873642921,40.02309443359375,114.9119873046875Z" fill-rule="evenodd" fill="#000000" fill-opacity="1"/></g><g transform="matrix(0.7071067094802856,0.7071068286895752,-0.7071068286895752,0.7071067094802856,120.22648079031205,-100.0850016330005)"><path d="M192.047813671875,95.08367919921875L181.926513671875,95.08367919921875C181.374228671875,95.08367919921875,180.926513671875,95.53139419921875,180.926513671875,96.08367919921875C180.926513671875,96.63595919921875,181.374228671875,97.08367919921875,181.926513671875,97.08367919921875L192.047813671875,97.08367919921875Q192.462013671875,97.08367919921875,192.754913671875,97.37656919921875Q193.047813671875,97.66946919921875,193.047813671875,98.08367919921875L193.047813671875,108.00397919921875C193.047813671875,108.55627919921875,193.495513671875,109.00397919921875,194.047813671875,109.00397919921875C194.600113671875,109.00397919921875,195.047813671875,108.55627919921875,195.047813671875,108.00397919921875L195.047813671875,98.08367919921875Q195.047813671875,96.84103919921876,194.169113671875,95.96235919921875Q193.290513671875,95.08367925882335,192.047813671875,95.08367919921875Z" fill-rule="evenodd" fill="#000000" fill-opacity="1"/></g></g></svg>