<svg xmlns="http://www.w3.org/2000/svg" xmlns:xlink="http://www.w3.org/1999/xlink" fill="none" version="1.1" width="24" height="24" viewBox="0 0 24 24"><g><g style="opacity:0.10000000149011612;"></g><g><path d="M14,3L10,3C8.895430000000001,3,8,3.895431,8,5L8,7L3,7L3,9L5,9L5,19C5,20.1046,5.89543,21,7,21L17,21C18.104599999999998,21,19,20.1046,19,19L19,9L21,9L21,7L16,7L16,5C16,3.895431,15.1046,3,14,3ZM14,7L14,5L10,5L10,7L14,7ZM7,19L7,11L9,11L9,19L7,19ZM13,11L11,11L11,19L13,19L13,11ZM15,19L15,11L17,11L17,19L15,19Z" fill-rule="evenodd" fill="#D8D8D8" fill-opacity="1"/></g></g></svg>