<svg xmlns="http://www.w3.org/2000/svg" xmlns:xlink="http://www.w3.org/1999/xlink" fill="none" version="1.1" width="24" height="24" viewBox="0 0 24 24"><g><g style="opacity:0.20000000298023224;"></g><g><ellipse cx="15" cy="9" rx="6" ry="6" fill="#D8D8D8" fill-opacity="1"/></g><g><ellipse cx="12" cy="12" rx="5" ry="5" fill-opacity="0" stroke-opacity="1" stroke="#D8D8D8" fill="none" stroke-width="2"/></g><g><path d="M14.7435,16.741130244140624C13.9973,19.205760244140627,11.70821,21.000000244140622,9,21.000000244140622C5.68629,21.000000244140622,3,18.313740244140625,3,15.000030244140625C3,12.291830244140625,4.79427,10.002695244140625,7.2589,9.256547949740625Q7,10.109067244140626,7,11.000030244140625Q7,11.256380244140626,7.02187,11.511800244140625Q6.5688200000000005,11.774350244140624,6.17157,12.171600244140624Q5,13.343180244140626,5,15.000030244140625Q5,16.656880244140623,6.17157,17.828460244140626Q7.34315,19.000030244140625,9,19.000030244140625Q10.65685,19.000030244140625,11.82843,17.828460244140626Q12.22568,17.431210244140622,12.48823,16.978160244140625Q12.74365,17.000030244140625,13,17.000030244140625Q13.891,17.000030244140625,14.7435,16.741130244140624Z" fill-rule="evenodd" fill="#D8D8D8" fill-opacity="1"/></g></g></svg>